<svg xmlns="http://www.w3.org/2000/svg" xmlns:xlink="http://www.w3.org/1999/xlink" width="500" zoomAndPan="magnify" viewBox="0 0 375 374.999991" height="500" preserveAspectRatio="xMidYMid meet" version="1.0"><defs><clipPath id="dbc8831a59"><path d="M 31.40625 0 L 343.40625 0 L 343.40625 375 L 31.40625 375 Z M 31.40625 0 " clip-rule="nonzero"/></clipPath></defs><g clip-path="url(#dbc8831a59)"><path fill="#fffbf8" d="M 343.59375 31.332031 L 343.59375 273.527344 C 343.59375 277.125 341.796875 280.421875 338.648438 282.371094 L 247.375 338.574219 C 243.925781 340.671875 239.429688 338.273438 239.429688 334.078125 L 239.429688 187.5 C 204.808594 187.5 41.148438 209.082031 36.652344 338.273438 C 36.652344 340.070312 36.503906 341.871094 36.503906 343.667969 L 31.40625 343.667969 L 31.40625 101.324219 C 31.40625 97.726562 33.203125 94.429688 36.351562 92.480469 L 127.625 36.277344 C 131.074219 34.179688 135.570312 36.578125 135.570312 40.773438 L 135.570312 187.5 C 170.339844 187.5 334 165.917969 338.347656 36.726562 C 338.347656 34.929688 338.496094 33.128906 338.496094 31.332031 Z M 135.417969 242.203125 C 135.417969 242.203125 52.089844 274.277344 52.089844 338.421875 C 52.089844 361.804688 66.328125 374.84375 88.507812 374.84375 C 112.039062 374.84375 135.269531 350.113281 135.269531 317.589844 C 135.417969 306.050781 135.417969 242.203125 135.417969 242.203125 Z M 239.582031 132.796875 C 239.582031 132.796875 322.910156 100.722656 322.910156 36.578125 C 322.910156 13.195312 308.671875 0.15625 286.492188 0.15625 C 262.960938 0.15625 239.730469 24.886719 239.730469 57.410156 C 239.582031 68.949219 239.582031 132.796875 239.582031 132.796875 Z M 239.582031 132.796875 " fill-opacity="1" fill-rule="nonzero"/></g></svg>