<svg xmlns="http://www.w3.org/2000/svg" xmlns:xlink="http://www.w3.org/1999/xlink" width="500" zoomAndPan="magnify" viewBox="0 0 375 374.999991" height="500" preserveAspectRatio="xMidYMid meet" version="1.0"><defs><clipPath id="d7114b63bd"><path d="M 148.445312 120.070312 L 226.445312 120.070312 L 226.445312 213.820312 L 148.445312 213.820312 Z M 148.445312 120.070312 " clip-rule="nonzero"/></clipPath></defs><g clip-path="url(#d7114b63bd)"><path fill="#000000" d="M 226.550781 127.910156 L 226.550781 188.503906 C 226.550781 189.402344 226.101562 190.226562 225.316406 190.714844 L 202.480469 204.777344 C 201.617188 205.300781 200.492188 204.703125 200.492188 203.652344 L 200.492188 166.980469 C 191.832031 166.980469 150.882812 172.378906 149.757812 204.703125 C 149.757812 205.152344 149.722656 205.601562 149.722656 206.050781 L 148.445312 206.050781 L 148.445312 145.417969 C 148.445312 144.519531 148.898438 143.695312 149.683594 143.207031 L 172.519531 129.144531 C 173.382812 128.621094 174.507812 129.222656 174.507812 130.269531 L 174.507812 166.980469 C 183.207031 166.980469 224.152344 161.582031 225.238281 129.257812 C 225.238281 128.808594 225.277344 128.359375 225.277344 127.910156 Z M 174.46875 180.667969 C 174.46875 180.667969 153.621094 188.691406 153.621094 204.738281 C 153.621094 210.589844 157.183594 213.851562 162.734375 213.851562 C 168.621094 213.851562 174.433594 207.664062 174.433594 199.527344 C 174.46875 196.640625 174.46875 180.667969 174.46875 180.667969 Z M 200.53125 153.292969 C 200.53125 153.292969 221.378906 145.269531 221.378906 129.222656 C 221.378906 123.371094 217.816406 120.109375 212.265625 120.109375 C 206.378906 120.109375 200.566406 126.296875 200.566406 134.433594 C 200.53125 137.320312 200.53125 153.292969 200.53125 153.292969 Z M 200.53125 153.292969 " fill-opacity="1" fill-rule="nonzero"/></g></svg>